<svg height="54" viewBox="0 0 254 54" width="254" xmlns="http://www.w3.org/2000/svg"><g fill="none" fill-rule="evenodd" transform="translate(0 3)"><path d="m97.67 16.68c1.610008 0 3.05666.3499965 4.34 1.05s2.286663 1.7208266 3.01 3.0625 1.085 2.9574905 1.085 4.8475v8.61c0 .5133359-.169165.939165-.5075 1.2775s-.764164.5075-1.2775.5075-.939165-.169165-1.2775-.5075-.5075-.7641641-.5075-1.2775v-8.61c0-1.8900095-.507495-3.3191618-1.5225-4.2875-1.0150051-.9683382-2.3624916-1.4525-4.0425-1.4525-.9800049 0-1.872496.1983313-2.6775.595-.805004.3966686-1.4349977.9333299-1.89 1.61-.4550023.67667-.6825 1.4349958-.6825 2.275v9.87c0 .5133359-.1633317.939165-.49 1.2775s-.7583307.5075-1.295.5075c-.5133359 0-.939165-.169165-1.2775-.5075s-.5075-.7641641-.5075-1.2775v-15.61c0-.5366694.169165-.9683317.5075-1.295s.7641641-.49 1.2775-.49c.5366693 0 .9683317.1633317 1.295.49s.49.7583306.49 1.295v.385c.7466704-.7466704 1.6333282-1.3241646 2.66-1.7325s2.1233275-.6125 3.29-.6125zm31.535 9.45c0 .4433355-.151665.8108319-.455 1.1025s-.688331.4375-1.155.4375h-13.3c.256668 1.6333415.997494 2.9516616 2.2225 3.955 1.225006 1.0033383 2.724158 1.505 4.4975 1.505.700003 0 1.429163-.1283321 2.1875-.385.758337-.256668 1.382498-.5716648 1.8725-.945.326668-.256668.711664-.385 1.155-.385s.793332.1166655 1.05.35c.420002.3500017.63.7466644.63 1.19 0 .4200021-.186665.7699986-.56 1.05-.793337.6300031-1.779161 1.1433313-2.9575 1.54-1.178339.3966686-2.304161.595-3.3775.595-1.913343 0-3.628326-.4141625-5.145-1.2425s-2.700829-1.9774927-3.5525-3.4475c-.851671-1.4700074-1.2775-3.138324-1.2775-5.005s.402496-3.5408259 1.2075-5.0225 1.924993-2.6366625 3.36-3.465 3.062491-1.2425 4.8825-1.2425c1.796676 0 3.348327.3966627 4.655 1.19s2.309996 1.9016595 3.01 3.325c.700003 1.4233404 1.05 3.0566574 1.05 4.9zm-8.715-6.405c-1.703342 0-3.085828.466662-4.1475 1.4s-1.732499 2.1816588-2.0125 3.745h11.655c-.210001-1.5633412-.793329-2.811662-1.75-3.745s-2.204992-1.4-3.745-1.4zm13.615-1.085c0-.5366694.169165-.9683317.5075-1.295s.764164-.49 1.2775-.49c.536669 0 .968332.1633317 1.295.49s.49.7583306.49 1.295v15.575c0 .5133359-.163332.939165-.49 1.2775s-.758331.5075-1.295.5075c-.513336 0-.939165-.169165-1.2775-.5075s-.5075-.7641641-.5075-1.2775zm1.785-9.52c.630003 0 1.172498.22749772 1.6275.6825.455002.4550023.6825.9974968.6825 1.6275 0 .6300031-.227498 1.1724977-.6825 1.6275s-.997497.6825-1.6275.6825-1.172498-.2274977-1.6275-.6825-.6825-.9974969-.6825-1.6275c0-.6300032.227498-1.1724977.6825-1.6275.455002-.45500228.997497-.6825 1.6275-.6825zm17.115 7.595c1.843343 0 3.494159.4141625 4.9525 1.2425s2.601663 1.9774926 3.43 3.4475c.828337 1.4700073 1.2425 3.1499905 1.2425 5.04v7.56c0 1.8433425-.408329 3.5233257-1.225 5.04-.816671 1.5166742-1.965826 2.7124956-3.4475 3.5875s-3.155824 1.3125-5.0225 1.3125c-1.680008 0-3.243326-.3324967-4.69-.9975s-2.659995-1.6158272-3.64-2.8525c-.256668-.3266683-.385-.6533317-.385-.98 0-.4900025.244998-.9099983.735-1.26.326668-.2100011.653332-.315.98-.315.583336 0 1.061665.2449975 1.435.735.630003.8166707 1.423329 1.4408312 2.38 1.8725s2.041661.6475 3.255.6475c1.143339 0 2.181662-.2741639 3.115-.8225s1.679997-1.353328 2.24-2.415.84-2.3274927.84-3.7975v-1.715c-.723337 1.2833397-1.679994 2.286663-2.87 3.01-1.190006.7233369-2.531659 1.085-4.025 1.085-1.726675 0-3.272493-.4141625-4.6375-1.2425s-2.426663-1.9774927-3.185-3.4475c-.758337-1.4700074-1.1375-3.138324-1.1375-5.005 0-1.8900095.408329-3.5699927 1.225-5.04.816671-1.4700074 1.959993-2.6191625 3.43-3.4475s3.138324-1.2425 5.005-1.2425zm0 16.275c1.190006 0 2.257495-.2799972 3.2025-.84s1.679997-1.3358284 2.205-2.3275.7875-2.1174937.7875-3.3775-.262497-2.3916617-.7875-3.395c-.525003-1.0033384-1.259995-1.7849972-2.205-2.345s-2.012494-.84-3.2025-.84-2.257495.2799972-3.2025.84-1.685831 1.3416616-2.2225 2.345c-.536669 1.0033383-.805 2.1349937-.805 3.395s.268331 2.3858284.805 3.3775 1.277495 1.7674972 2.2225 2.3275 2.012494.84 3.2025.84zm24.465-16.31c1.610008 0 3.05666.3499965 4.34 1.05s2.286663 1.7208266 3.01 3.0625 1.085 2.9574905 1.085 4.8475v8.61c0 .5133359-.169165.939165-.5075 1.2775s-.764164.5075-1.2775.5075-.939165-.169165-1.2775-.5075-.5075-.7641641-.5075-1.2775v-8.61c0-1.8900095-.507495-3.3191618-1.5225-4.2875s-2.362492-1.4525-4.0425-1.4525c-.980005 0-1.872496.1983313-2.6775.595-.805004.3966686-1.434998.9333299-1.89 1.61-.455002.67667-.6825 1.4349958-.6825 2.275v9.87c0 .5133359-.163332.939165-.49 1.2775s-.758331.5075-1.295.5075c-.513336 0-.939165-.169165-1.2775-.5075s-.5075-.7641641-.5075-1.2775v-23.8c0-.53666935.169165-.9683317.5075-1.295s.764164-.49 1.2775-.49c.536669 0 .968332.1633317 1.295.49s.49.75833065.49 1.295v8.575c.74667-.7466704 1.633328-1.3241646 2.66-1.7325s2.123327-.6125 3.29-.6125zm16.17-8.015c.513336 0 .939165.1633317 1.2775.49s.5075.75833065.5075 1.295v9.45c.816671-1.0033384 1.808327-1.7849972 2.975-2.345 1.166672-.5600028 2.42666-.84 3.78-.84 1.680008 0 3.202493.4199958 4.5675 1.26s2.438329 2.0008259 3.22 3.4825 1.1725 3.1324909 1.1725 4.9525-.419996 3.4708259-1.26 4.9525-2.000826 2.6483291-3.4825 3.5-3.120824 1.2775-4.9175 1.2775-3.424159-.4258291-4.8825-1.2775-2.613329-2.0183259-3.465-3.5-1.2775-3.1324909-1.2775-4.9525v-15.96c0-.53666935.163332-.9683317.49-1.295s.758331-.49 1.295-.49zm7.84 24.325c1.166672 0 2.222495-.2858305 3.1675-.8575s1.691664-1.3591617 2.24-2.3625c.548336-1.0033384.8225-2.1233272.8225-3.36 0-1.2366729-.274164-2.3508284-.8225-3.3425s-1.294995-1.7733305-2.24-2.345-2.000828-.8575-3.1675-.8575c-1.166673 0-2.222495.2858305-3.1675.8575s-1.685831 1.3533284-2.2225 2.345-.805 2.1058271-.805 3.3425c0 1.2366728.268331 2.3566616.805 3.36.536669 1.0033383 1.277495 1.7908305 2.2225 2.3625s2.000827.8575 3.1675.8575zm23.66-16.275c1.843343 0 3.494159.4141625 4.9525 1.2425s2.601663 1.9774926 3.43 3.4475c.828337 1.4700073 1.2425 3.1499905 1.2425 5.04 0 1.866676-.408329 3.5349926-1.225 5.005-.816671 1.4700073-1.954159 2.6191625-3.4125 3.4475s-3.120824 1.2425-4.9875 1.2425-3.534993-.4141625-5.005-1.2425-2.613329-1.9774927-3.43-3.4475c-.816671-1.4700074-1.225-3.138324-1.225-5.005 0-1.8900095.408329-3.5699927 1.225-5.04.816671-1.4700074 1.959993-2.6191625 3.43-3.4475s3.138324-1.2425 5.005-1.2425zm0 3.15c-1.190006 0-2.257495.2799972-3.2025.84s-1.685831 1.3416616-2.2225 2.345c-.536669 1.0033383-.805 2.1349937-.805 3.395s.268331 2.3858284.805 3.3775 1.277495 1.7674972 2.2225 2.3275 2.012494.84 3.2025.84 2.257495-.2799972 3.2025-.84 1.679997-1.3358284 2.205-2.3275.7875-2.1174937.7875-3.3775-.262497-2.3916617-.7875-3.395c-.525003-1.0033384-1.259995-1.7849972-2.205-2.345s-2.012494-.84-3.2025-.84zm24.325-3.22c1.236673 0 2.204996.1866648 2.905.56.700003.3733352 1.05.8399972 1.05 1.4 0 .1633341-.011667.2799996-.035.35-.210001.7466704-.676663 1.12-1.4 1.12-.116667 0-.291666-.0233331-.525-.07-.933338-.1633342-1.691664-.245-2.275-.245-1.680008 0-3.033328.3849961-4.06 1.155-1.026672.7700038-1.54 1.8083268-1.54 3.115v10.22c0 .5600028-.145832.9916651-.4375 1.295-.291668.3033348-.729164.455-1.3125.455-.560003 0-.991665-.1458319-1.295-.4375s-.455-.7291638-.455-1.3125v-15.645c0-.5600028.151665-.9916652.455-1.295.303335-.3033349.734997-.455 1.295-.455 1.166672 0 1.75.5833275 1.75 1.75v.665c.700003-.8166708 1.563328-1.458331 2.59-1.925s2.123327-.7 3.29-.7z" fill="#fff" fill-rule="nonzero"/><path d="m58.2266211 11.7344593c0-4.27055421 3.2336651-7.94999997 7.7802132-7.94999997s7.7036577 3.81373529 7.7036577 7.94999997v27.8134535c0 4.2352973-3.5356168 7.9615465-7.7419354 7.9615465-4.2063187 0-7.7419355-3.593505-7.7419355-7.9615465 0-4.3680414 0-23.5428992 0-27.8134535z" fill="#fff"/><path d="m66.5387546 16.4426135 4.3594274 17.5380729-6.4782126 6.4782126-1.0189981-20.8785022z" fill="#33312e" fill-opacity=".503196" transform="matrix(.70710678 -.70710678 .70710678 .70710678 -.450067 55.814955)"/><g fill="#fff"><path d="m45.1192227 7.11117701c.0558837-4.21467055 3.3811498-7.88942012 7.9887921-7.95051436 4.6076424-.06109424 7.7572698 3.66031155 7.7031434 7.74244984-.0541264 4.08213831-.4467387 33.69241311-.5021611 37.87228801-.0554223 4.179875-3.68731 7.9048731-7.950151 7.9613955-4.2628411.0565224-7.7989438-3.4424489-7.7417844-7.7533309.0571594-4.3108821.4462773-33.6576175.502161-37.87228809z" transform="matrix(.70710678 -.70710678 .70710678 .70710678 -2.908893 44.874703)"/><path d="m17.3313434 5.78412663c-.0558837-4.21467054 3.1730852-7.80251536 7.7807275-7.74142112 4.6076424.06109424 7.8570815 3.86734734 7.9112079 7.94948564.0541265 4.08213825-.4656571 34.60480895-.4102347 38.78468395.0554223 4.1798749-3.4789434 7.8098533-7.7417844 7.7533308-4.262841-.0565224-7.8929917-3.6505133-7.9501511-7.9613954-.0571594-4.310882.4661185-34.57001332.4102348-38.78468387z" transform="matrix(.70710678 .70710678 -.70710678 .70710678 25.194308 -10.251647)"/></g></g></svg>